<svg xmlns="http://www.w3.org/2000/svg" viewBox="0 0 810 352" width="810" height="352" role="img" aria-label="Contact: krchhabria@ucsd.edu, +1 (858) 241-6438, LinkedIn, resume repository" xmlns:c2pa="http://c2pa.org/manifest"><metadata><c2pa:manifest>AAAWgmp1bWIAAAAeanVtZGMycGEAEQAQgAAAqgA4m3EDYzJwYQAAABZcanVtYgAAAEdqdW1kYzJtYQARABCAAACqADibcQN1cm46YzJwYTo1MTUyYjhjYS1lY2M3LTQzYTktYmRkNy03N2M0ODY0YWVkMDEAAAADl2p1bWIAAAApanVtZGMyYXMAEQAQgAAAqgA4m3EDYzJwYS5hc3NlcnRpb25zAAAAALxqdW1iAAAARGp1bWRjYm9yABEAEIAAAKoAOJtxE2MycGEuaW5ncmVkaWVudC52MwAAAAAYYzJzaDB8agW6bbcM1pxrD/qUduMAAABwY2JvcqNpZGM6Zm9ybWF0bWltYWdlL3N2Zyt4bWxqaW5zdGFuY2VJRHgseG1wOmlpZDpkYTI0ZmNjOS00YjQ3LTRiNWEtOTdmNy0zZTk2MmNiMDY3NjdscmVsYXRpb25zaGlwaHBhcmVudE9mAAAB4mp1bWIAAABBanVtZGNib3IAEQAQgAAAqgA4m3ETYzJwYS5hY3Rpb25zLnYyAAAAABhjMnNoWCNBMIBhpKrgEE2ZGcOsRAAAAZljYm9yomdhY3Rpb25zgqJmYWN0aW9ua2MycGEub3BlbmVkanBhcmFtZXRlcnOha2luZ3JlZGllbnRzgaJjdXJseC1zZWxmI2p1bWJmPWMycGEuYXNzZXJ0aW9ucy9jMnBhLmluZ3JlZGllbnQudjNkaGFzaFggrLuWccB0T4qNFWDGXex/VZOvpXXs/D2lB23ID2Sv9mikZmFjdGlvbngdY29tLmFudGhyb3BpYy5jbGF1ZGUucHJvdmlkZWRqcGFyYW1ldGVyc6F4H2NvbS5hbnRocm9waWMub3JpZ2luLWNvbmZpZGVuY2VndW5rbm93bmtkZXNjcmlwdGlvbnhmQ2xhdWRlIHByb3ZpZGVkIHRoaXMgZmlsZSBhdCB0aGUgcmVxdWVzdCBvZiBhIHVzZXIgYW5kIG1heSBoYXZlIGNyZWF0ZWQgb3IgbW9kaWZpZWQgdGhlIGZpbGUgY29udGVudHMubXNvZnR3YXJlQWdlbnShZG5hbWVmQ2xhdWRlcmFsbEFjdGlvbnNJbmNsdWRlZPUAAADIanVtYgAAAEBqdW1kY2JvcgARABCAAACqADibcRNjMnBhLmhhc2guZGF0YQAAAAAYYzJzaBrDqPmom3F+u/dTtouoXOUAAACAY2JvcqVjYWxnZnNoYTI1NmNwYWRNAAAAAAAAAAAAAAAAAGRoYXNoWCCXnBFb4UBKFIoVRfV3dPpgPtxtW3sBFLancY3kbssrvGRuYW1lbmp1bWJmIG1hbmlmZXN0amV4Y2x1c2lvbnOBomVzdGFydBj7Zmxlbmd0aBkeBAAAAj5qdW1iAAAAJ2p1bWRjMmNsABEAEIAAAKoAOJtxA2MycGEuY2xhaW0udjIAAAACD2Nib3KlY2FsZ2ZzaGEyNTZpc2lnbmF0dXJleE1zZWxmI2p1bWJmPS9jMnBhL3VybjpjMnBhOjUxNTJiOGNhLWVjYzctNDNhOS1iZGQ3LTc3YzQ4NjRhZWQwMS9jMnBhLnNpZ25hdHVyZWppbnN0YW5jZUlEeCx4bXA6aWlkOjk1YTQwMzFhLWQyNDQtNDUwNi1hNzliLWIyYTU2YTk0OTBjNHJjcmVhdGVkX2Fzc2VydGlvbnODomN1cmx4LXNlbGYjanVtYmY9YzJwYS5hc3NlcnRpb25zL2MycGEuaW5ncmVkaWVudC52M2RoYXNoWCCsu5ZxwHRPio0VYMZd7H9Vk6+ldez8PaUHbcgPZK/2aKJjdXJseCpzZWxmI2p1bWJmPWMycGEuYXNzZXJ0aW9ucy9jMnBhLmFjdGlvbnMudjJkaGFzaFggx3ZFnL10r9ekX4MnDVB/K9EltHPK/AQcidX7Wp7msgOiY3VybHgpc2VsZiNqdW1iZj1jMnBhLmFzc2VydGlvbnMvYzJwYS5oYXNoLmRhdGFkaGFzaFggD0qlKHrLiPT44JDQHedh8sRZPHXMFeC6qAFzRia2d/V0Y2xhaW1fZ2VuZXJhdG9yX2luZm+jZG5hbWVvQW50aHJvcGljIEZpbGVzZ3ZlcnNpb25lMS4wLjBrc3BlY1ZlcnNpb25lMi40LjAAABA4anVtYgAAAChqdW1kYzJjcwARABCAAACqADibcQNjMnBhLnNpZ25hdHVyZQAAABAIY2JvctKEWQISogEmGCFZAgowggIGMIIBjaADAgECAhRA5aAK7sI50L64g/oGQgU9Z1UTADAKBggqhkjOPQQDAzBJMRcwFQYDVQQKEw5BbnRocm9waWMsIFBCQzEuMCwGA1UEAxMlQW50aHJvcGljIENvbnRlbnQgQ3JlZGVudGlhbHMgUm9vdCBDQTAeFw0yNjA4MDcxODQzNTZaFw0yODA4MDYxOTQzNTZaMEQxFzAVBgNVBAoTDkFudGhyb3BpYywgUEJDMSkwJwYDVQQDEyBBbnRocm9waWMgQ2xhdWRlIENvbnRlbnQgU2lnbmluZzBZMBMGByqGSM49AgEGCCqGSM49AwEHA0IABJh6CmvLUBgFFNU0vUKlOVtE6djd17L5SuwX0LemFisBM3dkd/3cyjxFA3Qo5S46fX0/ihY0VZ7mfb9KF703t5OjWDBWMA4GA1UdDwEB/wQEAwIHgDAVBgNVHSUEDjAMBgorBgEEAYPoXgIBMAwGA1UdEwEB/wQCMAAwHwYDVR0jBBgwFoAUzlHiBIFOZFsj+OPEz5o+nMHXXMIwCgYIKoZIzj0EAwMDZwAwZAIwMXMdFJ4BetLLVY7ORuE9noqbbAZOZn/aArXyTwFAZfKrPzxF2vPoJNf1+UCdg1XGAjBwX1zd9WGqYkqmL5SFqw1QySjr1zJfpJM9+1rdDwSPLMOPOjKuiXjoU/pUUeG9RwmhY3BhZFkNngAAAAAAAAAAAAAAAAAAAAAAAAAAAAAAAAAAAAAAAAAAAAAAAAAAAAAAAAAAAAAAAAAAAAAAAAAAAAAAAAAAAAAAAAAAAAAAAAAAAAAAAAAAAAAAAAAAAAAAAAAAAAAAAAAAAAAAAAAAAAAAAAAAAAAAAAAAAAAAAAAAAAAAAAAAAAAAAAAAAAAAAAAAAAAAAAAAAAAAAAAAAAAAAAAAAAAAAAAAAAAAAAAAAAAAAAAAAAAAAAAAAAAAAAAAAAAAAAAAAAAAAAAAAAAAAAAAAAAAAAAAAAAAAAAAAAAAAAAAAAAAAAAAAAAAAAAAAAAAAAAAAAAAAAAAAAAAAAAAAAAAAAAAAAAAAAAAAAAAAAAAAAAAAAAAAAAAAAAAAAAAAAAAAAAAAAAAAAAAAAAAAAAAAAAAAAAAAAAAAAAAAAAAAAAAAAAAAAAAAAAAAAAAAAAAAAAAAAAAAAAAAAAAAAAAAAAAAAAAAAAAAAAAAAAAAAAAAAAAAAAAAAAAAAAAAAAAAAAAAAAAAAAAAAAAAAAAAAAAAAAAAAAAAAAAAAAAAAAAAAAAAAAAAAAAAAAAAAAAAAAAAAAAAAAAAAAAAAAAAAAAAAAAAAAAAAAAAAAAAAAAAAAAAAAAAAAAAAAAAAAAAAAAAAAAAAAAAAAAAAAAAAAAAAAAAAAAAAAAAAAAAAAAAAAAAAAAAAAAAAAAAAAAAAAAAAAAAAAAAAAAAAAAAAAAAAAAAAAAAAAAAAAAAAAAAAAAAAAAAAAAAAAAAAAAAAAAAAAAAAAAAAAAAAAAAAAAAAAAAAAAAAAAAAAAAAAAAAAAAAAAAAAAAAAAAAAAAAAAAAAAAAAAAAAAAAAAAAAAAAAAAAAAAAAAAAAAAAAAAAAAAAAAAAAAAAAAAAAAAAAAAAAAAAAAAAAAAAAAAAAAAAAAAAAAAAAAAAAAAAAAAAAAAAAAAAAAAAAAAAAAAAAAAAAAAAAAAAAAAAAAAAAAAAAAAAAAAAAAAAAAAAAAAAAAAAAAAAAAAAAAAAAAAAAAAAAAAAAAAAAAAAAAAAAAAAAAAAAAAAAAAAAAAAAAAAAAAAAAAAAAAAAAAAAAAAAAAAAAAAAAAAAAAAAAAAAAAAAAAAAAAAAAAAAAAAAAAAAAAAAAAAAAAAAAAAAAAAAAAAAAAAAAAAAAAAAAAAAAAAAAAAAAAAAAAAAAAAAAAAAAAAAAAAAAAAAAAAAAAAAAAAAAAAAAAAAAAAAAAAAAAAAAAAAAAAAAAAAAAAAAAAAAAAAAAAAAAAAAAAAAAAAAAAAAAAAAAAAAAAAAAAAAAAAAAAAAAAAAAAAAAAAAAAAAAAAAAAAAAAAAAAAAAAAAAAAAAAAAAAAAAAAAAAAAAAAAAAAAAAAAAAAAAAAAAAAAAAAAAAAAAAAAAAAAAAAAAAAAAAAAAAAAAAAAAAAAAAAAAAAAAAAAAAAAAAAAAAAAAAAAAAAAAAAAAAAAAAAAAAAAAAAAAAAAAAAAAAAAAAAAAAAAAAAAAAAAAAAAAAAAAAAAAAAAAAAAAAAAAAAAAAAAAAAAAAAAAAAAAAAAAAAAAAAAAAAAAAAAAAAAAAAAAAAAAAAAAAAAAAAAAAAAAAAAAAAAAAAAAAAAAAAAAAAAAAAAAAAAAAAAAAAAAAAAAAAAAAAAAAAAAAAAAAAAAAAAAAAAAAAAAAAAAAAAAAAAAAAAAAAAAAAAAAAAAAAAAAAAAAAAAAAAAAAAAAAAAAAAAAAAAAAAAAAAAAAAAAAAAAAAAAAAAAAAAAAAAAAAAAAAAAAAAAAAAAAAAAAAAAAAAAAAAAAAAAAAAAAAAAAAAAAAAAAAAAAAAAAAAAAAAAAAAAAAAAAAAAAAAAAAAAAAAAAAAAAAAAAAAAAAAAAAAAAAAAAAAAAAAAAAAAAAAAAAAAAAAAAAAAAAAAAAAAAAAAAAAAAAAAAAAAAAAAAAAAAAAAAAAAAAAAAAAAAAAAAAAAAAAAAAAAAAAAAAAAAAAAAAAAAAAAAAAAAAAAAAAAAAAAAAAAAAAAAAAAAAAAAAAAAAAAAAAAAAAAAAAAAAAAAAAAAAAAAAAAAAAAAAAAAAAAAAAAAAAAAAAAAAAAAAAAAAAAAAAAAAAAAAAAAAAAAAAAAAAAAAAAAAAAAAAAAAAAAAAAAAAAAAAAAAAAAAAAAAAAAAAAAAAAAAAAAAAAAAAAAAAAAAAAAAAAAAAAAAAAAAAAAAAAAAAAAAAAAAAAAAAAAAAAAAAAAAAAAAAAAAAAAAAAAAAAAAAAAAAAAAAAAAAAAAAAAAAAAAAAAAAAAAAAAAAAAAAAAAAAAAAAAAAAAAAAAAAAAAAAAAAAAAAAAAAAAAAAAAAAAAAAAAAAAAAAAAAAAAAAAAAAAAAAAAAAAAAAAAAAAAAAAAAAAAAAAAAAAAAAAAAAAAAAAAAAAAAAAAAAAAAAAAAAAAAAAAAAAAAAAAAAAAAAAAAAAAAAAAAAAAAAAAAAAAAAAAAAAAAAAAAAAAAAAAAAAAAAAAAAAAAAAAAAAAAAAAAAAAAAAAAAAAAAAAAAAAAAAAAAAAAAAAAAAAAAAAAAAAAAAAAAAAAAAAAAAAAAAAAAAAAAAAAAAAAAAAAAAAAAAAAAAAAAAAAAAAAAAAAAAAAAAAAAAAAAAAAAAAAAAAAAAAAAAAAAAAAAAAAAAAAAAAAAAAAAAAAAAAAAAAAAAAAAAAAAAAAAAAAAAAAAAAAAAAAAAAAAAAAAAAAAAAAAAAAAAAAAAAAAAAAAAAAAAAAAAAAAAAAAAAAAAAAAAAAAAAAAAAAAAAAAAAAAAAAAAAAAAAAAAAAAAAAAAAAAAAAAAAAAAAAAAAAAAAAAAAAAAAAAAAAAAAAAAAAAAAAAAAAAAAAAAAAAAAAAAAAAAAAAAAAAAAAAAAAAAAAAAAAAAAAAAAAAAAAAAAAAAAAAAAAAAAAAAAAAAAAAAAAAAAAAAAAAAAAAAAAAAAAAAAAAAAAAAAAAAAAAAAAAAAAAAAAAAAAAAAAAAAAAAAAAAAAAAAAAAAAAAAAAAAAAAAAAAAAAAAAAAAAAAAAAAAAAAAAAAAAAAAAAAAAAAAAAAAAAAAAAAAAAAAAAAAAAAAAAAAAAAAAAAAAAAAAAAAAAAAAAAAAAAAAAAAAAAAAAAAAAAAAAAAAAAAAAAAAAAAAAAAAAAAAAAAAAAAAAAAAAAAAAAAAAAAAAAAAAAAAAAAAAAAAAAAAAAAAAAAAAAAAAAAAAAAAAAAAAAAAAAAAAAAAAAAAAAAAAAAAAAAAAAAAAAAAAAAAAAAAAAAAAAAAAAAAAAAAAAAAAAAAAAAAAAAAAAAAAAAAAAAAAAAAAAAAAAAAAAAAAAAAAAAAAAAAAAAAAAAAAAAAAAAAAAAAAAAAAAAAAAAAAAAAAAAAAAAAAAAAAAAAAAAAAAAAAAAAAAAAAAAAAAAAAAAAAAAAAAAAAAAAAAAAAAAAAAAAAAAAAAAAAAAAAAAAAAAAAAAAAAAAAAAAAAAAAAAAAAAAAAAAAAAAAAAAAAAAAAAAAAAAAAAAAAAAAAAAAAAAAAAAAAAAAAAAAAAAAAAAAAAAAAAAAAAAAAAAAAAAAAAAAAAAAAAAAAAAAAAAAAAAAAAAAAAAAAAAAAAAAAAAAAAAAAAAAAAAAAAAAAAAAAAAAAAAAAAAAAAAAAAAAAAAAAAAAAAAAAAAAAAAAAAAAAAAAAAAAAAAAAAAAAAAAAAAAAAAAAAAAAAAAAAAAAAAAAAAAAAAAAAAAAAAAAAAAAAAAAAAAAAAAAAAAAAAAAAAAAAAAAAAAAAAAAAAAAAAAAAAAAAAAAAAAAAAAAAAAAAAAAAAAAAAAAAAAAAAAAAAAAAAAAAAAAAAAAAAAAAAAAAAAAAAAAAAAAAAAAAAAAAAAAAAAAAAAAAAAAAAAAAAAAAAAAAAAAAAAAAAAAAAAAAAAAAAAAAAAAAAAAAAAAAAAAAAAAAAAAAAAAAAAAAAAAAAAAAAAAAAAAAAAAAAAAAAAAAAAAAAAAAAAAAAAAAAAAAAAAAAAAAAAAAAAAAAAAAAAAAAAAAAAAAAAAAAAAAAAAAAAAAAAAAAAAAAAAAAAAAAAAAAAAAAAAAAAAAAAAAAAAAAAAAAAAAAAAAAAAAAAAAAAAAAAAAAAAAAAAAAAAAAAAAAAAAAAAAAAAAAAAAAAAAAAAAAAAAAAAAAAAAAAAAAAAAAAAAAAAAAAAAAAAAAAAAAAAAAAAAAAAAAAAAAAAAAAAAAAAAAAAAAAAAAAAAAAAAAAAAAAAAAAAAAAAAAAAAAAAAAAAAAAAAAAAAAAAAAAAAAAAAAAAAAAAAAAAAAAAAAAAAAAAAAAAAAAAAAAAAAAAAAAAAAAAAAAAAAAAAAAAAAAAAAAAAAAAAAAAAAAAAAAAAAAAAAAAAAAAAAAAAAAAAAAAAAAAAAAAAAAAAAAAAAAAAAAAAAAAAAAAAAAAAAAAAAAAAAAAAAAAAAAAAAAAAAAAAAAAAAAAAAAAAAAAAAAAAAAAAAAAAAAAAAAAAAAAAAAAAAAAAAAAAAAAAAAAAAAAAAAAAAAAAAAAAAAAAAAAAAAAAAAAAAAAAAAAAAAAAAAAAAAAAAAAAAAAAAAAAAAAAAAAAAAAAAAAAAAAAAAAAAAAAAAAAAAAAAAAAAPZYQE1/7InRSxzJYhxzPshnaKaidzTvynT5ZDZNckadE8vi9Ze1/V7P8K4DaCiwExStpyg6rOZCc5B48BXpXlS/NEo=</c2pa:manifest></metadata>
<defs>
<radialGradient id="g" cx="30%" cy="10%" r="90%"><stop offset="0" stop-color="#2fe878" stop-opacity=".13"/><stop offset="1" stop-color="#2fe878" stop-opacity="0"/></radialGradient>
<pattern id="scan" width="4" height="4" patternUnits="userSpaceOnUse"><rect width="4" height="1" fill="#2fe878" opacity=".045"/></pattern>
<linearGradient id="bar" x1="0" x2="0" y1="0" y2="1"><stop offset="0" stop-color="#2fe878" stop-opacity="0"/><stop offset="1" stop-color="#2fe878" stop-opacity=".10"/></linearGradient>
</defs>
<style>
text{font-family:'JetBrains Mono','SF Mono',Menlo,Consolas,'Liberation Mono',monospace}
.r{animation:r .5s ease-out backwards}
@keyframes r{from{opacity:0;transform:translateX(-12px)}to{opacity:1;transform:none}}
.cur{animation:b 1s steps(1) infinite}
@keyframes b{50%{opacity:0}}
.sweep{animation:sw 5s linear infinite}
@keyframes sw{from{transform:translateY(0)}to{transform:translateY(292px)}}
.hm{animation:hm 3.6s ease-in-out infinite}
@keyframes hm{0%,100%{opacity:1}50%{opacity:.25}}
.hot{animation:hot 2.4s ease-in-out infinite}
@keyframes hot{0%,100%{fill-opacity:.05}50%{fill-opacity:.16}}
.l0{fill:#0e1a13}.l1{fill:#0f4a29}.l2{fill:#147a3f}.l3{fill:#1fb85c}.l4{fill:#2fe878}
@media (prefers-reduced-motion:reduce){*{animation:none!important}}
</style>
<rect x=".5" y=".5" width="809" height="351" rx="16" fill="#0a100b" stroke="#2fe878" stroke-opacity=".38"/>
<rect x=".5" y=".5" width="809" height="351" rx="16" fill="url(#g)"/>
<path d="M.5 44V16.5a16 16 0 0 1 16-16h777a16 16 0 0 1 16 16V44z" fill="#0e1510"/>
<line x1="0" x2="810" y1="44.5" y2="44.5" stroke="#2fe878" stroke-opacity=".18"/>
<circle cx="30" cy="23" r="5.5" fill="#0f4a29"/>
<circle cx="50" cy="23" r="5.5" fill="#147a3f"/>
<circle cx="70" cy="23" r="5.5" fill="#2fe878"/>
<text x="405.0" y="27" font-size="12.5" fill="#93a89c" text-anchor="middle">krishiv@github: ~/contact</text>
<g class="r" style="animation-delay:0.30s"><text x="34" y="84" font-size="15" fill="#2fe878">$</text><text x="54" y="84" font-size="15" fill="#f2fbf5">./contact --krishiv</text></g>
<g class="r" style="animation-delay:0.64s"><text x="34" y="112" font-size="13.5" fill="#93a89c">&gt; opening channel</text><text x="222" y="112" font-size="13.5" fill="#0f4a29">................</text><text x="368" y="112" font-size="13.5" fill="#2fe878">established</text></g>
<line x1="34" x2="590" y1="132" y2="132" stroke="#0f4a29" stroke-dasharray="4 5"/>
<g class="r" style="animation-delay:0.98s"><text x="40" y="166" font-size="13" fill="#2fe878" letter-spacing="2">EMAIL</text><text x="176" y="166" font-size="15" fill="#f2fbf5">krchhabria@ucsd.edu</text></g>
<g class="r" style="animation-delay:1.32s"><text x="40" y="208" font-size="13" fill="#2fe878" letter-spacing="2">PHONE</text><text x="176" y="208" font-size="15" fill="#f2fbf5">+1 (858) 241-6438</text></g>
<g class="r" style="animation-delay:1.66s"><text x="40" y="250" font-size="13" fill="#2fe878" letter-spacing="2">LINKEDIN</text><text x="176" y="250" font-size="15" fill="#f2fbf5">in/krishiv-chhabria-502628322</text></g>
<g class="r" style="animation-delay:2.00s"><rect class="hot" x="24" y="270" width="576" height="34" rx="6" fill="#2fe878" stroke="#2fe878" stroke-opacity=".45"/><text x="40" y="292" font-size="13" fill="#2fe878" letter-spacing="2">RESUME</text><text x="176" y="292" font-size="15" fill="#c8ffb0">github.com/kr1shivchhabria/Personal-Resume</text></g>
<g class="r" style="animation-delay:2.34s"><text x="34" y="342" font-size="15" fill="#2fe878">$</text><rect class="cur" x="52" y="329" width="9" height="16" fill="#2fe878"/></g>
<text x="634" y="66" font-size="11" fill="#93a89c">signal</text>
<rect class="l0" x="634" y="78" width="13" height="13" rx="3"/>
<rect class="l2" x="634" y="95" width="13" height="13" rx="3"/>
<rect class="l0" x="634" y="112" width="13" height="13" rx="3"/>
<rect class="l3" x="634" y="129" width="13" height="13" rx="3"/>
<rect class="l2 hm" style="animation-delay:0.01s" x="634" y="146" width="13" height="13" rx="3"/>
<rect class="l1" x="634" y="163" width="13" height="13" rx="3"/>
<rect class="l0" x="634" y="180" width="13" height="13" rx="3"/>
<rect class="l1 hm" style="animation-delay:0.15s" x="651" y="78" width="13" height="13" rx="3"/>
<rect class="l4" x="651" y="95" width="13" height="13" rx="3"/>
<rect class="l3" x="651" y="112" width="13" height="13" rx="3"/>
<rect class="l0 hm" style="animation-delay:1.79s" x="651" y="129" width="13" height="13" rx="3"/>
<rect class="l0" x="651" y="146" width="13" height="13" rx="3"/>
<rect class="l1 hm" style="animation-delay:2.94s" x="651" y="163" width="13" height="13" rx="3"/>
<rect class="l0" x="651" y="180" width="13" height="13" rx="3"/>
<rect class="l1" x="668" y="78" width="13" height="13" rx="3"/>
<rect class="l1" x="668" y="95" width="13" height="13" rx="3"/>
<rect class="l0 hm" style="animation-delay:3.12s" x="668" y="112" width="13" height="13" rx="3"/>
<rect class="l1" x="668" y="129" width="13" height="13" rx="3"/>
<rect class="l0" x="668" y="146" width="13" height="13" rx="3"/>
<rect class="l3" x="668" y="163" width="13" height="13" rx="3"/>
<rect class="l3" x="668" y="180" width="13" height="13" rx="3"/>
<rect class="l2 hm" style="animation-delay:1.71s" x="685" y="78" width="13" height="13" rx="3"/>
<rect class="l3 hm" style="animation-delay:3.32s" x="685" y="95" width="13" height="13" rx="3"/>
<rect class="l3" x="685" y="112" width="13" height="13" rx="3"/>
<rect class="l1" x="685" y="129" width="13" height="13" rx="3"/>
<rect class="l1" x="685" y="146" width="13" height="13" rx="3"/>
<rect class="l1 hm" style="animation-delay:0.34s" x="685" y="163" width="13" height="13" rx="3"/>
<rect class="l2" x="685" y="180" width="13" height="13" rx="3"/>
<rect class="l1" x="702" y="78" width="13" height="13" rx="3"/>
<rect class="l2" x="702" y="95" width="13" height="13" rx="3"/>
<rect class="l1" x="702" y="112" width="13" height="13" rx="3"/>
<rect class="l2" x="702" y="129" width="13" height="13" rx="3"/>
<rect class="l0 hm" style="animation-delay:1.25s" x="702" y="146" width="13" height="13" rx="3"/>
<rect class="l4 hm" style="animation-delay:2.15s" x="702" y="163" width="13" height="13" rx="3"/>
<rect class="l1 hm" style="animation-delay:0.24s" x="702" y="180" width="13" height="13" rx="3"/>
<rect class="l3" x="719" y="78" width="13" height="13" rx="3"/>
<rect class="l1" x="719" y="95" width="13" height="13" rx="3"/>
<rect class="l2" x="719" y="112" width="13" height="13" rx="3"/>
<rect class="l4" x="719" y="129" width="13" height="13" rx="3"/>
<rect class="l4" x="719" y="146" width="13" height="13" rx="3"/>
<rect class="l2" x="719" y="163" width="13" height="13" rx="3"/>
<rect class="l1 hm" style="animation-delay:0.89s" x="719" y="180" width="13" height="13" rx="3"/>
<rect class="l3 hm" style="animation-delay:0.25s" x="736" y="78" width="13" height="13" rx="3"/>
<rect class="l3" x="736" y="95" width="13" height="13" rx="3"/>
<rect class="l1" x="736" y="112" width="13" height="13" rx="3"/>
<rect class="l0 hm" style="animation-delay:1.04s" x="736" y="129" width="13" height="13" rx="3"/>
<rect class="l1 hm" style="animation-delay:0.25s" x="736" y="146" width="13" height="13" rx="3"/>
<rect class="l1" x="736" y="163" width="13" height="13" rx="3"/>
<rect class="l4" x="736" y="180" width="13" height="13" rx="3"/>
<rect class="l1 hm" style="animation-delay:3.45s" x="753" y="78" width="13" height="13" rx="3"/>
<rect class="l2" x="753" y="95" width="13" height="13" rx="3"/>
<rect class="l0 hm" style="animation-delay:3.02s" x="753" y="112" width="13" height="13" rx="3"/>
<rect class="l3" x="753" y="129" width="13" height="13" rx="3"/>
<rect class="l2" x="753" y="146" width="13" height="13" rx="3"/>
<rect class="l2" x="753" y="163" width="13" height="13" rx="3"/>
<rect class="l1" x="753" y="180" width="13" height="13" rx="3"/>
<rect class="l1" x="770" y="78" width="13" height="13" rx="3"/>
<rect class="l0" x="770" y="95" width="13" height="13" rx="3"/>
<rect class="l4 hm" style="animation-delay:2.14s" x="770" y="112" width="13" height="13" rx="3"/>
<rect class="l2" x="770" y="129" width="13" height="13" rx="3"/>
<rect class="l2 hm" style="animation-delay:1.46s" x="770" y="146" width="13" height="13" rx="3"/>
<rect class="l4" x="770" y="163" width="13" height="13" rx="3"/>
<rect class="l0 hm" style="animation-delay:0.34s" x="770" y="180" width="13" height="13" rx="3"/>
<text x="634" y="215" font-size="11" fill="#147a3f">replies: fast</text>
<rect x="1" y="45" width="808" height="306" fill="url(#scan)"/>
<g clip-path="inset(45px 0 0 0)"><rect class="sweep" x="1" y="30" width="808" height="46" fill="url(#bar)"/></g>
</svg>